<?xml version="1.0" standalone="no"?>
<!DOCTYPE svg PUBLIC "-//W3C//DTD SVG 1.1//EN" "http://www.w3.org/Graphics/SVG/1.1/DTD/svg11.dtd" >
<svg xmlns="http://www.w3.org/2000/svg">
<metadata>Generated by IcoMoon</metadata>
<defs>
<font id="uvpicon" horiz-adv-x="1024">
<font-face units-per-em="1024" ascent="960" descent="-64" />
<missing-glyph horiz-adv-x="1024" />
<glyph unicode="&#x20;" horiz-adv-x="512" d="" />
<glyph unicode="&#xe900;" glyph-name="10" d="M377.242 193.516v463.094h-53.453l-101.171-54.17 12.124-47.759 80.527 43.479h1.423v-404.644zM598.18 184.033c102.574 0 160.983 87.020 160.983 244.46 0 147.446-55.562 234.394-153.211 234.394-94.024 0-160.993-85.473-160.993-240.855 1.423-153.19 62.689-237.998 153.221-237.998zM602.388 614.451c64.84 0 94.075-74.854 94.075-188.856 0-118.262-30.659-193.065-94.771-193.065-56.945 0-94.044 68.403-94.044 188.815 0 126.136 39.916 193.106 94.74 193.106zM1022.536 475.812h-68.465c-22.385 232.53-218.675 414.976-456.868 415.324l-0.707 66.222-99.318-103.844-1.106 103.844-100.424-104.98 102.707-109.537-1.147 108.339 101.571-108.339-0.788 75.162c197.356-0.778 358.523-150.518 380.856-342.19h-69.693v-73.032h71.332c-14.285-190.433-165.54-341.555-356.035-355.461v100.987h-73.032v-99.348c-182.333 21.545-324.792 169.236-338.555 353.823h100.628v73.032h-213.391v-73.032h38.226c13.937-225.229 190.034-407.245 413.082-429.066v-38.789h73.032v37.939c231.004 13.978 416.215 198.984 430.469 429.916h67.625v73.032z" />
<glyph unicode="&#xe901;" glyph-name="AB" d="M955.095 476.129c-22.374 232.376-218.511 414.7-456.571 415.048l-0.707 66.181-99.246-103.772-1.116 103.772-100.352-104.919 102.625-109.466-1.137 108.257 101.499-108.257-0.788 75.11c197.222-0.778 358.298-150.415 380.6-341.955h-69.622v-72.98h71.26c-14.264-190.31-165.417-341.34-355.779-355.226v100.915h-72.991v-99.277c-117.852 13.916-218.982 80.63-279.47 175.903h54.108l51.18 154.87h174.582l46.787-137.769v-15.596c1.597-0.215 3.779-0.44 5.519-0.645l0.287-0.85h6.707c21.012-2.355 49.859-4.352 86.139-4.352 80.323 0 135.844 14.541 170.199 45.967 24.801 24.156 41.615 56.228 41.615 98.652 0 73.052-54.743 111.749-101.499 123.443v1.495c51.825 18.954 83.261 60.611 83.261 108.124 0 38.697-15.34 67.922-40.919 86.907-30.638 24.842-71.557 35.82-135.117 35.82-44.616 0-88.422-4.424-116.183-10.26v-269.66l-94.3 276.265h-76.687l-163.123-480.154c-28.723 49.193-46.93 105.339-51.415 165.437h100.567v72.98h-213.258v-72.98h38.205c13.937-225.085 189.901-406.989 412.805-428.8v-38.769h72.991v37.919c230.84 13.967 415.959 198.851 430.203 429.629h67.564v72.98h-68.424zM563.538 668.17c10.179 2.171 27.003 4.383 56.218 4.383 64.297 0 108.124-22.661 108.124-80.364 0-47.503-39.475-82.565-106.619-82.565h-57.723v158.546zM563.538 461.445h52.603c69.417 0 127.058-27.802 127.058-95.007 0-71.557-60.641-95.724-126.362-95.724-22.661 0-40.919 0.778-53.299 2.99v187.74zM339.948 572.488c9.482 29.932 17.531 59.863 24.791 89.088h1.505c7.26-28.467 14.612-57.692 25.549-89.836l48.22-141.742h-148.326l48.261 142.49z" />
<glyph unicode="&#xe902;" glyph-name="author" d="M952.105 236.237c-18.944 6.308-59.679 18.473-106.865 32.553-62.515 18.647-163.123 48.671-193.782 60.273-4.936 16.691-11.141 57.487-14.295 95.652l-0.020 0.297c53.432 54.19 87.982 139.561 87.982 235.469 0 163.389-100.198 296.325-223.365 296.325s-223.355-132.936-223.355-296.325c0-106.629 42.68-200.243 106.557-252.447-3.369-32.788-8.509-64.686-12.739-78.971-30.648-11.592-131.256-41.615-193.772-60.273-47.176-14.080-87.921-26.245-106.865-32.553-65.884-21.955-72.571-156.621-66.57-265.728l1.864-33.874h1009.92l1.884 33.874c5.97 109.107-0.707 243.773-66.58 265.728zM350.085 660.48c0 121.764 69.458 224.645 151.685 224.645s151.675-102.881 151.675-224.645-69.468-224.645-151.685-224.645-151.675 102.881-151.675 224.645zM622.029 410.993c-0.266-0.236-0.543-0.471-0.819-0.696 0.276 0.225 0.553 0.451 0.819 0.696zM605.44 398.141c-0.236-0.164-0.481-0.317-0.717-0.481 0.236 0.164 0.481 0.317 0.717 0.481zM417.833 385.946c-0.123 0.061-0.246 0.133-0.379 0.195 0.133-0.061 0.256-0.133 0.379-0.195zM401.531 395.786c-0.471 0.307-0.932 0.635-1.403 0.952 0.471-0.317 0.942-0.635 1.403-0.952zM948.224 8.315h-872.765c-0.973 74.639 7.895 145.562 21.043 160.655 18.831 6.175 57.713 17.766 102.441 31.119 179.712 53.627 208.507 63.683 220.488 72.673 8.438 6.328 23.101 17.439 33.608 98.58 15.698-4.659 31.99-7.188 48.732-7.188 23.767 0 46.684 4.997 68.178 14.172-0.041-0.020-0.082-0.041-0.123-0.061 10.537-87.327 25.764-99 34.437-105.503 11.981-8.991 40.776-19.036 220.477-72.673 44.739-13.353 83.62-24.955 102.461-31.119 13.138-15.094 21.996-86.006 21.023-160.655z" />
<glyph unicode="&#xe903;" glyph-name="basket" d="M1029.12 657.92h-481.28v296.96h-71.68v-296.96h-471.040v-235.52h71.68v-317.44h163.84v-163.84h552.96v163.84h153.6v317.44h81.92v235.52zM711.68 576v-81.92h-81.92v81.92h81.92zM394.24 340.48h-81.92v81.92h81.92v-81.92zM476.16 422.4h71.68v-81.92h-71.68v81.92zM394.24 258.56v-71.68h-81.92v71.68h81.92zM476.16 258.56h71.68v-71.68h-71.68v71.68zM629.76 258.56h81.92v-71.68h-81.92v71.68zM629.76 340.48v81.92h81.92v-81.92h-81.92zM547.84 576v-81.92h-71.68v81.92h71.68zM394.24 576v-81.92h-81.92v81.92h81.92zM76.8 576h163.84v-81.92h-163.84v81.92zM240.64 422.4v-81.92h-81.92v81.92h81.92zM158.72 186.88v71.68h81.92v-71.68h-81.92zM312.32 23.040v81.92h81.92v-81.92h-81.92zM476.16 23.040v81.92h71.68v-81.92h-71.68zM711.68 23.040h-81.92v81.92h81.92v-81.92zM865.28 186.88h-71.68v71.68h71.68v-71.68zM865.28 340.48h-71.68v81.92h71.68v-81.92zM947.2 494.080h-153.6v81.92h153.6v-81.92z" />
<glyph unicode="&#xe904;" glyph-name="buffer" d="M991.836 174.899l-112.343 52.49c-9.656 4.577-25.498 4.577-35.164 0l-322.273-150.333c-9.544-4.413-25.416-4.413-35 0l-322.284 150.333c-9.626 4.577-25.457 4.577-35.082 0l-112.527-52.49c-9.677-4.424-9.677-11.837 0-16.425l469.903-219.156c9.585-4.424 25.457-4.424 35 0l469.78 219.156c9.994 4.588 9.994 12.001-0.010 16.425zM991.836 464.64l-112.343 52.337c-9.656 4.618-25.498 4.618-35.164 0l-322.273-150.17c-9.544-4.485-25.416-4.485-35 0l-322.284 150.17c-9.626 4.618-25.457 4.618-35.082 0l-112.538-52.337c-9.677-4.669-9.677-11.96 0-16.507l469.903-219.249c9.585-4.413 25.457-4.413 35 0l469.78 219.249c10.004 4.547 10.004 11.837 0 16.507zM17.111 719.421l469.955-202.455c9.585-4.004 25.457-4.004 35 0l469.78 202.455c10.004 4.209 10.004 10.957 0 15.206l-469.791 202.332c-9.544 4.076-25.416 4.076-35 0l-469.944-202.332c-9.626-4.239-9.626-10.998 0-15.206z" />
<glyph unicode="&#xe905;" glyph-name="calendar" d="M852.337 953.743h-677.12c-96.768 0-175.217-78.479-175.217-175.217v-670.833c0-96.737 78.438-175.206 175.217-175.206h677.12c96.901 0 175.217 78.469 175.217 175.206v670.833c0.010 96.737-78.316 175.217-175.217 175.217zM955.259 107.704c0-56.74-46.182-102.902-102.922-102.902h-677.12c-56.74 0-102.902 46.162-102.902 102.902v670.822c0 56.74 46.162 102.902 102.902 102.902h677.12c56.74 0 102.922-46.162 102.922-102.902v-670.822zM320.645 761.375h-182.589c-19.794 0-35.84-16.046-35.84-35.84s16.046-35.84 35.84-35.84h182.589c19.794 0 35.84 16.046 35.84 35.84s-16.036 35.84-35.84 35.84zM320.645 577.055h-182.589c-19.794 0-35.84-16.046-35.84-35.84s16.046-35.84 35.84-35.84h182.589c19.794 0 35.84 16.046 35.84 35.84s-16.036 35.84-35.84 35.84zM320.645 392.724h-182.589c-19.794 0-35.84-16.046-35.84-35.84s16.046-35.84 35.84-35.84h182.589c19.794 0 35.84 16.046 35.84 35.84s-16.036 35.84-35.84 35.84zM320.645 208.404h-182.589c-19.794 0-35.84-16.046-35.84-35.84s16.046-35.84 35.84-35.84h182.589c19.794 0 35.84 16.046 35.84 35.84s-16.036 35.84-35.84 35.84zM608.655 761.375h-182.589c-19.794 0-35.84-16.046-35.84-35.84s16.046-35.84 35.84-35.84h182.6c19.794 0 35.84 16.046 35.84 35.84s-16.056 35.84-35.85 35.84zM608.655 577.055h-182.589c-19.794 0-35.84-16.046-35.84-35.84s16.046-35.84 35.84-35.84h182.6c19.794 0 35.84 16.046 35.84 35.84s-16.056 35.84-35.85 35.84zM608.655 392.724h-182.589c-19.794 0-35.84-16.046-35.84-35.84s16.046-35.84 35.84-35.84h182.6c19.794 0 35.84 16.046 35.84 35.84s-16.056 35.84-35.85 35.84zM608.655 208.404h-182.589c-19.794 0-35.84-16.046-35.84-35.84s16.046-35.84 35.84-35.84h182.6c19.794 0 35.84 16.046 35.84 35.84s-16.056 35.84-35.85 35.84zM896.655 761.375h-182.579c-19.794 0-35.84-16.046-35.84-35.84s16.046-35.84 35.84-35.84h182.579c19.794 0 35.84 16.046 35.84 35.84s-16.046 35.84-35.84 35.84zM896.655 577.055h-182.579c-19.794 0-35.84-16.046-35.84-35.84s16.046-35.84 35.84-35.84h182.579c19.794 0 35.84 16.046 35.84 35.84s-16.046 35.84-35.84 35.84zM896.655 392.724h-182.579c-19.794 0-35.84-16.046-35.84-35.84s16.046-35.84 35.84-35.84h182.579c19.794 0 35.84 16.046 35.84 35.84s-16.046 35.84-35.84 35.84zM896.655 208.404h-182.579c-19.794 0-35.84-16.046-35.84-35.84s16.046-35.84 35.84-35.84h182.579c19.794 0 35.84 16.046 35.84 35.84s-16.046 35.84-35.84 35.84z" />
<glyph unicode="&#xe906;" glyph-name="categories" d="M969.677 694.528c-0.44 0.102-0.901 0.195-1.341 0.287v5.151c0.020 13.906 0.041 27.802-0.082 41.759-0.082 5.878-0.799 11.633-2.12 17.091-8.223 33.956-38.543 57.672-73.718 57.672h-141.896c-123.505 0-246.989-0.010-370.545-0.061l-1.874 2.57c-4.219 5.765-8.448 11.51-12.36 17.459l-4.465 6.892c-6.994 10.885-14.234 22.129-23.962 32.215-13.527 14.090-28.129 20.931-44.605 20.931l-220.18-0.010c-31.816-0.031-60.979-21.166-70.902-51.425-1.065-3.236-1.864-6.574-2.632-9.912l-0.901-3.789-0.471-762.624 1.874-4.71c0.174-0.42 0.369-0.819 0.44-1.014 8.212-33.126 38.963-57.18 73.114-57.18h779.94c30.044 0 57.58 18.452 68.536 45.916 3 7.516 4.465 15.309 5.765 22.19l0.584 3.011c2.243 11.5 4.321 23.020 6.42 34.54l4.116 22.487c5.325 28.836 10.639 57.661 16.015 86.508l70.144 378.235c0.317 1.741 0.717 3.482 1.096 5.222 1.116 4.987 2.376 10.65 2.499 16.794 0.573 35.041-24.003 66.058-58.491 73.8zM897.679 712.038c0-5.192 0-10.383 0-15.565-24.535 0.031-49.080 0.041-73.615 0.041l-349.624-0.020c-99.84 0-199.68 0.020-299.602 0.102-36.803 0-67.451-24.986-74.547-60.785-3.768-19.067-7.301-38.175-10.844-57.283l-21.125-114.278c0 117.965 0.010 235.889 0.041 353.853 0 0.85 0 3.43 0.41 4.925 0.543 1.956 2.161 2.509 3.451 2.621 1.423 0.123 2.857 0.143 4.28 0.143h68.26c47.299 0 94.618 0.010 142.162 0.102 3.912-5.325 7.69-10.742 11.469-16.159l0.993-1.423c2.755-3.942 5.458-7.916 8.172-11.899 5.581-8.202 11.356-16.691 17.521-24.883 9.38-12.462 20.808-20.46 33.976-23.757 5.171-1.29 10.772-1.925 17.091-1.925l514.068-0.102c2.898 0 3.983-0.205 4.383-0.328 2.263-0.707 2.601-1.311 2.816-3.348 0.338-3.379 0.317-7.107 0.276-11.059l-0.010-18.975zM69.868 87.9c5.683 31.396 11.52 62.792 17.357 94.157l47.38 255.642c6.697 36.127 13.435 72.243 20.173 108.37l6.584 35.052c2.253 11.766 4.506 23.542 6.513 35.379l0.44 2.898c0.225 1.608 0.584 4.045 0.85 4.567 0.86 1.075 1.669 1.659 3.645 1.802l0.85 0.020 778.312-0.031c5.161 0 5.335-2.294 5.458-3.84 0.082-1.034-0.44-3.523-0.881-5.519l-0.696-3.482c-6.4-34.826-12.8-69.622-19.282-104.438l-76.339-412.969c-1.024-5.663-1.997-11.336-2.877-16.988-0.717-0.758-2.12-1.659-2.939-1.792-1.3-0.205-2.642-0.236-3.963-0.236l-774.881-0.020c-6.154 0-6.472 1.628-6.666 2.611-0.328 1.679 0.389 5.652 0.963 8.817z" />
<glyph unicode="&#xe907;" glyph-name="CC" d="M2.509-64v92.099l1020.211 0.901v-92.088zM465.101 954.235h-462.592v-860.16h462.592v278.016l-194.714-0.614-0.635 312.381 103.916 0.328v-0.338h91.433v270.387zM373.35 775.967h-195.82l0.010-32.758h-0.010l0.010-4.936 0.010-54.702h0.092l0.788-383.078h0.072v-21.402l194.632 0.625 0.389-93.471h-276.398v675.84h275.937l0.287-86.118zM1022.72 954.235h-459.52v-860.16h459.52v278.016l-194.099-0.614-0.625 312.381 103.916 0.328v-0.338h90.798v270.387zM931.604 775.967h-195.82v-37.693l0.020-54.702h0.102l0.778-383.078h0.082v-21.402l194.621 0.625 0.399-93.471h-276.429v675.84h275.937l0.307-86.118z" />
<glyph unicode="&#xe908;" glyph-name="CC-off" d="M465.101 954.235h-462.592v-1018.235h462.592v278.006l-194.714-0.614-0.635 470.456 103.916 0.328v-0.338h91.433v270.397zM373.35 775.967h-195.82l0.010-32.758h-0.010l0.010-4.936 0.010-54.702h0.092l0.788-541.153h0.072v-21.402l194.632 0.625 0.41-93.481h-276.419v833.915h275.937l0.287-86.108zM1022.72 954.235h-459.52v-1018.235h459.52v278.006l-194.099-0.604-0.625 470.456 103.916 0.328v-0.338h90.798v270.387zM931.604 775.967h-195.82v-37.693l0.020-54.702h0.102l0.778-541.153h0.082v-21.402l194.621 0.625 0.389-93.481h-276.419v833.915h275.937l0.307-86.108z" />
<glyph unicode="&#xe909;" glyph-name="clipboard" d="M767.365 158.075h-510.72c-19.794 0-35.84-16.046-35.84-35.84s16.046-35.84 35.84-35.84h510.72c19.794 0 35.84 16.046 35.84 35.84s-16.056 35.84-35.84 35.84zM767.365 339.835h-510.72c-19.794 0-35.84-16.046-35.84-35.84s16.046-35.84 35.84-35.84h510.72c19.794 0 35.84 16.046 35.84 35.84s-16.056 35.84-35.84 35.84zM767.365 529.275h-305.92c-19.794 0-35.84-16.046-35.84-35.84s16.046-35.84 35.84-35.84h305.92c19.794 0 35.84 16.046 35.84 35.84s-16.056 35.84-35.84 35.84zM752.241 851.139c21.576-22.733 36.301-51.241 41.257-82.77 34.038-16.804 57.58-51.784 57.58-92.242v-568.433c0-56.74-46.182-102.902-102.922-102.902h-472.31c-56.74 0-102.902 46.162-102.902 102.902v568.433c0 40.458 23.532 75.438 57.58 92.242 4.946 31.529 19.661 60.037 41.247 82.77-94.884-2.191-171.141-79.657-171.141-175.012v-568.433c0-96.737 78.438-175.206 175.217-175.206h472.32c96.901 0 175.217 78.469 175.217 175.206v568.433c0 95.355-76.145 172.82-171.141 175.012zM424.96 599.675h174.080c76.227 0 138.24 62.013 138.24 138.24v6.4c0 70.994-53.801 129.597-122.767 137.318-8.95 41.974-51.476 73.882-102.513 73.882s-93.563-31.918-102.513-73.882c-68.956-7.721-122.767-66.324-122.767-137.318v-6.4c0-76.216 62.024-138.24 138.24-138.24zM479.365 865.239c0 7.588 12.718 18.606 32.645 18.606s32.635-11.018 32.635-18.606v-6.308c0-0.819-0.215-1.679-0.502-2.56-0.174-0.512-0.451-1.034-0.707-1.556s-0.502-1.034-0.85-1.556c-0.297-0.44-0.666-0.881-1.034-1.321-0.461-0.563-0.942-1.126-1.495-1.679-0.481-0.471-1.014-0.922-1.556-1.372-0.543-0.461-1.116-0.901-1.731-1.341-0.737-0.522-1.505-1.024-2.345-1.495-0.532-0.317-1.085-0.614-1.659-0.911-0.993-0.502-2.007-0.993-3.092-1.434-0.563-0.225-1.167-0.43-1.761-0.645-1.137-0.41-2.304-0.799-3.523-1.116-0.819-0.215-1.71-0.369-2.57-0.543-1.075-0.215-2.15-0.461-3.277-0.614-2.089-0.266-4.26-0.451-6.543-0.451s-4.465 0.184-6.554 0.451c-1.116 0.154-2.171 0.389-3.236 0.604-0.881 0.174-1.772 0.338-2.611 0.553-1.219 0.328-2.355 0.707-3.492 1.106-0.604 0.215-1.219 0.43-1.792 0.655-1.075 0.44-2.089 0.922-3.072 1.423-0.573 0.297-1.137 0.604-1.679 0.911-0.829 0.481-1.608 0.983-2.345 1.495-0.604 0.43-1.178 0.881-1.71 1.331-0.553 0.461-1.096 0.922-1.577 1.403-0.543 0.532-0.993 1.065-1.444 1.618-0.379 0.461-0.778 0.922-1.085 1.403-0.317 0.481-0.532 0.952-0.778 1.423-0.287 0.573-0.594 1.137-0.768 1.71-0.276 0.86-0.492 1.71-0.492 2.519v6.298zM358.4 744.315c0 36.239 29.112 65.812 65.188 66.55 0.522-0.717 1.167-1.352 1.71-2.058 0.399-0.522 0.85-1.004 1.26-1.516 5.171-6.42 11.244-12.175 18.094-17.183 0.635-0.461 1.26-0.932 1.905-1.382 2.109-1.475 4.26-2.877 6.482-4.198 0.901-0.532 1.833-1.024 2.755-1.536 3.185-1.761 6.461-3.379 9.861-4.833 1.976-0.85 3.932-1.731 5.98-2.478 1.577-0.573 3.215-1.034 4.844-1.536 2.202-0.696 4.424-1.352 6.697-1.925 1.536-0.379 3.092-0.717 4.659-1.034 2.591-0.543 5.222-0.973 7.885-1.331 1.331-0.184 2.652-0.399 4.004-0.532 4.045-0.42 8.131-0.686 12.298-0.686s8.253 0.266 12.298 0.686c1.352 0.133 2.673 0.348 4.004 0.532 2.662 0.369 5.304 0.799 7.895 1.331 1.556 0.317 3.113 0.655 4.639 1.034 2.284 0.573 4.495 1.229 6.707 1.925 1.618 0.502 3.256 0.963 4.844 1.536 2.068 0.758 4.055 1.649 6.062 2.519 3.379 1.444 6.625 3.041 9.779 4.792 0.922 0.512 1.864 1.004 2.765 1.536 2.243 1.321 4.383 2.734 6.492 4.198 0.645 0.451 1.26 0.911 1.894 1.372 6.881 5.038 12.995 10.834 18.186 17.295 0.369 0.461 0.768 0.911 1.137 1.382 0.553 0.707 1.198 1.352 1.731 2.089 36.035-0.737 65.147-30.3 65.147-66.55v-6.4c0-36.7-29.86-66.56-66.56-66.56h-174.080c-36.7 0-66.56 29.86-66.56 66.56v6.4z" />
<glyph unicode="&#xe90a;" glyph-name="close" d="M1020.498 907.284l-52.941 52.716-457.329-458.813-457.359 458.813-52.869-52.716 457.523-458.977-457.523-459.008 52.869-52.644 457.359 458.783 457.329-458.783 52.941 52.644-457.554 459.008z" />
<glyph unicode="&#xe90b;" glyph-name="comments" d="M1022.761 802.734c0 86.856-71.639 157.266-158.505 157.266h-706.98c-86.856 0-157.276-70.41-157.276-157.266l2.458-493.916c0-86.845 70.41-157.276 157.266-157.276h253.768l314.491-213.78-3.502 213.77h142.264c86.835 0 156.017 70.431 156.017 157.276v493.926zM866.744 230.164h-222.228l1.3-79.933 1.075-62.28-209.213 142.203h-277.944c-43.356 0-78.643 35.256-78.643 79.043l-2.447 493.537c0 43.346 35.287 78.633 78.633 78.633h706.98c43.397 0 78.643-35.287 78.643-79.022l2.458-493.537c0-43.387-35.236-78.643-78.612-78.643zM151.132 756.040h715.51v-78.633h-715.51v78.633zM160.963 498.022h705.679v-78.633h-705.679v78.633z" />
<glyph unicode="&#xe90c;" glyph-name="digg" d="M614.564 187.986c0 13.793 0 27.126 0 40.847-54.098 0-108.124 0-162.335 0 0 115.405 0 230.349 0 345.559 87.849 0 175.749 0 263.793 0 0-155.75 0-311.388 0-467.261-87.88 0-175.698 0-263.793 0 0 26.747 0 53.576 0 80.855 53.944 0 108.012 0 162.335 0zM614.564 310.292c0 61 0 121.958 0 182.999-20.378 0-40.602 0-60.836 0 0-61.030 0-121.999 0-182.999 20.316 0 40.448 0 60.836 0zM757.34 107.141c0 26.911 0 53.719 0 80.855 54.098 0 108.124 0 162.376 0 0 13.722 0 27.126 0 40.919-54.098 0-108.145 0-162.324 0 0 115.333 0 230.349 0 345.528 87.921 0 175.8 0 263.844 0 0-155.709 0-311.429 0-467.302-87.88 0-175.698 0-263.895 0zM858.716 493.322c0-1.188 0-2.068 0-2.99 0-59.013 0-118.057-0.082-177.142 0-2.365 0.676-3.144 3.215-3.144 18.299 0.082 36.618 0.082 54.938 0 2.437 0 3.215 0.543 3.215 3.144-0.082 59.013-0.082 118.057-0.082 177.091 0 0.963-0.082 1.915-0.215 3.031-20.306 0.010-40.448 0.010-60.989 0.010zM4.516 228.987c0 115.405 0 230.267 0 345.6 54.18 0 108.196 0 162.611 0 0 47.544 0 94.792 0 142.223 33.987 0 67.625 0 101.571 0 0-1.27 0-2.294 0-3.369 0-160.266 0-320.614 0-480.85 0-3.604 0-3.604-3.717-3.604-85.668 0-171.346 0-256.983 0-1.106 0-2.222 0-3.482 0zM167.014 310.211c0.041 1.065 0.154 1.997 0.154 2.918 0 59.085 0 118.2 0.072 177.316 0 2.406-0.727 3.062-3.103 3.062-18.391-0.113-36.782-0.113-55.173 0-2.417 0-3.113-0.614-3.113-3.062 0.123-59.116 0.123-118.241 0-177.316 0-2.447 0.696-3.072 3.113-3.072 18.381 0.082 36.782 0.082 55.173 0.082 0.881 0 1.802 0.072 2.877 0.072zM411.044 574.362c0-115.098 0-230.042 0-345.221-33.679 0-67.318 0-101.151 0 0 115.026 0 230.011 0 345.221 33.587 0 67.195 0 101.151 0zM411.044 716.739c0-33.679 0-67.277 0-101.069-33.72 0-67.359 0-101.192 0 0 33.597 0 67.236 0 101.069 33.679 0 67.359 0 101.192 0z" />
<glyph unicode="&#xe90d;" glyph-name="down" d="M1023.877 676.28l-53.842 55.040-468.050-458.056-447.037 452.751-54.825-54.057 500.961-507.279z" />
<glyph unicode="&#xe90e;" glyph-name="download" d="M941.722 171.418v-156.948h-863.242v156.948h-78.479v-235.418h1020.18v235.418zM750.981 253.972l-50.903 59.791-150.753-131.236v777.472h-78.469v-770.417l-149.77 120.412-47.974-62.075 245.494-194.437z" />
<glyph unicode="&#xe90f;" glyph-name="email" d="M65.536 395.776c0 338.944 244.736 561.152 528.384 561.152 254.976 0 415.744-169.984 415.744-419.84 0-221.184-138.24-335.872-252.928-335.872-68.608 0-121.856 31.744-131.072 96.256h-2.048c-40.96-49.152-98.304-87.040-153.6-87.040-86.016 0-152.576 64.512-152.576 179.2 0 135.168 95.232 293.888 242.688 293.888 44.032 0 77.824-19.456 101.376-61.44h2.048l14.336 51.2h69.632l-49.152-252.928c-24.576-100.352-1.024-148.48 69.632-148.48 78.848 0 169.984 97.28 169.984 261.12 0 203.776-120.832 353.28-350.208 353.28-225.28 0-442.368-191.488-442.368-487.424 0-247.808 160.768-387.072 376.832-387.072 76.8 0 147.456 23.552 204.8 56.32l27.648-62.464c-73.728-44.032-152.576-64.512-240.64-64.512-250.88 1.024-448.512 159.744-448.512 454.656zM606.208 356.864l35.84 200.704c-23.552 38.912-47.104 53.248-80.896 53.248-100.352 0-161.792-119.808-161.792-215.040 0-80.896 37.888-113.664 89.088-113.664 35.84 0 73.728 22.528 117.76 74.752z" />
<glyph unicode="&#xe910;" glyph-name="embed" d="M677.837 850.555l-62.116-53.391 298.373-347.075-305.725-374.641 63.457-51.794 349.123 427.796zM407.726 794.655l-61.624 53.965-349.768-399.38 355.758-428.104 62.996 52.367-311.081 374.344zM527.012-8.444l-81.617 7.037 73.427 851.632 81.617-7.037-73.427-851.632z" />
<glyph unicode="&#xe911;" glyph-name="facebook" d="M573.583 881.193h174.838v78.807h-174.838c-48.097 0-85.187-14.664-110.326-43.633-37.212-42.875-30.546-98.591-30.054-99.246v-251.146h-157.614v-78.807h157.614v-551.649h78.807l-0.236 551.649h157.85v78.807h-157.88l-0.123 256.686c-0.031 0.276-2.744 26.092 11.162 42.056 9.462 10.936 26.542 16.476 50.801 16.476z" />
<glyph unicode="&#xe912;" glyph-name="FF-left" d="M37.888 453.12l506.88 507.904v-459.776l457.728 459.776v-1022.976l-457.728 465.92v-465.92z" />
<glyph unicode="&#xe913;" glyph-name="FF-right" d="M1002.496 453.12l-506.88 507.904v-459.776l-457.728 459.776v-1022.976l457.728 465.92v-465.92z" />
<glyph unicode="&#xe914;" glyph-name="flash" d="M666.624 577.024c15.36 30.72 26.624 59.392 47.104 82.944 11.264 13.312 25.6 23.552 41.984 28.672 19.456 6.144 38.912 10.24 59.392 13.312 15.36 2.048 30.72 2.048 46.080 3.072 16.384 2.048 23.552 9.216 25.6 25.6 1.024 5.12 1.024 10.24 1.024 14.336 0 49.152 1.024 99.328 1.024 148.48 0 12.288-1.024 23.552-2.048 35.84-2.048 18.432-7.168 24.576-25.6 27.648-6.144 3.072-11.264 3.072-17.408 3.072-21.504-2.048-44.032-3.072-65.536-6.144-60.416-9.216-114.688-30.72-164.864-66.56-51.2-36.864-89.088-86.016-119.808-140.288-33.792-58.368-58.368-120.832-79.872-185.344s-41.984-129.024-64.512-192.512c-12.288-34.816-25.6-69.632-46.080-100.352-32.768-47.104-77.824-73.728-136.192-74.752-9.216 0-18.432-2.048-26.624-5.12-9.216-3.072-15.36-11.264-15.36-21.504-1.024-34.816-3.072-70.656-3.072-105.472 0-32.768 2.048-65.536 3.072-98.304 1.024-12.288 8.192-20.48 20.48-22.528 5.12-1.024 11.264-2.048 16.384-1.024 25.6 3.072 52.224 5.12 76.8 10.24 82.944 18.432 150.528 63.488 208.896 122.88 66.56 68.608 112.64 148.48 142.336 239.616 2.048 6.144 5.12 8.192 11.264 8.192 58.368 0 116.736 0 175.104 1.024 9.216 0 18.432 1.024 26.624 3.072 10.24 2.048 15.36 9.216 17.408 18.432 1.024 4.096 1.024 9.216 2.048 13.312 1.024 41.984 2.048 84.992 2.048 126.976 0 22.528-1.024 45.056-3.072 66.56-1.024 15.36-8.192 21.504-23.552 23.552-16.384 2.048-32.768 3.072-50.176 3.072-24.576 1.024-52.224 0-80.896 0z" />
<glyph unicode="&#xe915;" glyph-name="flikr" d="M852.337 881.428c56.74 0 102.922-46.162 102.922-102.902v-670.833c0-56.74-46.182-102.902-102.922-102.902h-677.12c-56.74 0-102.902 46.162-102.902 102.902v670.833c0 56.74 46.162 102.902 102.902 102.902h677.12zM852.337 953.743h-677.12c-96.768 0-175.217-78.479-175.217-175.217v-670.833c0-96.737 78.438-175.206 175.217-175.206h677.12c96.901 0 175.217 78.469 175.217 175.206v670.833c0.010 96.737-78.316 175.217-175.217 175.217v0zM324.045 287.631c-95.099 0-172.462 77.373-172.462 172.462 0 95.099 77.363 172.462 172.462 172.462s172.462-77.363 172.462-172.462c-0.010-95.089-77.373-172.462-172.462-172.462zM324.045 571.116c-61.215 0-111.022-49.807-111.022-111.022s49.807-111.022 111.022-111.022 111.022 49.807 111.022 111.022c-0.010 61.225-49.807 111.022-111.022 111.022zM723.364 287.631c-95.078 0-172.442 77.373-172.442 172.462 0 95.099 77.363 172.462 172.442 172.462 95.109 0 172.483-77.363 172.483-172.462-0.010-95.089-77.373-172.462-172.483-172.462zM723.364 571.116c-61.215 0-111.002-49.807-111.002-111.022s49.787-111.022 111.002-111.022c61.225 0 111.043 49.807 111.043 111.022-0.010 61.225-49.818 111.022-111.043 111.022z" />
<glyph unicode="&#xe916;" glyph-name="fullscreen" d="M75.51 14.776v315.075h-75.51v-393.841h393.851v78.766h-226.191zM0 566.159h75.51v316.723h318.341v77.117h-393.851zM945.244 76.616v-61.839h-315.105v-78.766h393.861v393.841h-78.756zM630.139 960v-77.117h315.105v-316.723h78.756v393.841z" />
<glyph unicode="&#xe917;" glyph-name="full-width" d="M1014.262 863.683h-78.019v-327.444l-128.942 184.054-63.826-44.81 141.486-201.902h-755.548l141.558 201.902-63.918 44.81-129.024-184.115v327.506h-78.029v-858.214h78.029v346.173l148.378-172.841 59.197 50.749-142.459 166.011h728.054l-142.52-166.011 59.279-50.749 148.285 172.79v-346.122h87.757v858.214z" />
<glyph unicode="&#xe918;" glyph-name="gallery" d="M947.794 677.489h-18.217v74.045c0 40.264-32.614 72.909-72.909 72.909h-13.66v62.648c0 40.264-32.625 72.909-72.909 72.909h-697.19c-40.264 0-72.909-32.645-72.909-72.909v-591.237c0-40.305 32.645-72.909 72.909-72.909h13.67v-62.659c0-40.294 32.645-72.899 72.909-72.899h18.227v-84.285c0-40.305 32.645-72.899 72.909-72.899h697.17c40.315 0 72.909 32.604 72.909 72.899v601.477c0 40.264-32.604 72.909-72.909 72.909zM72.909 295.864v591.227h697.18v-551.373l-199.158 513.669-102.687-228.475-86.467 105.943-119.839-197.714-73.011 54.794-114.77-263.158 695.931 1.341v-26.255h-697.18zM644.884 395.305l-441.866-1.321 26.296 63.13 64.451-51.292 96 164.393 103.895-106.527 72.325 167.025 78.899-235.407zM159.488 160.287v62.659h610.601c40.294 0 72.909 32.614 72.909 72.909v455.68h13.66v-591.237h-697.17zM947.794 3.103h-697.17v84.285h606.044c40.305 0 72.909 32.614 72.909 72.899v444.293h18.217v-601.477zM198.789 670.648c49.94 0 90.563 40.622 90.563 90.563s-40.622 90.563-90.563 90.563c-49.951 0-90.563-40.622-90.563-90.563s40.612-90.563 90.563-90.563zM198.789 778.875c9.718 0 17.654-7.936 17.654-17.664 0-19.436-35.318-19.436-35.318 0 0 9.728 7.946 17.664 17.664 17.664z" />
<glyph unicode="&#xe919;" glyph-name="google-plus" d="M579.86 695.204c0 129.577-107.848 234.967-240.384 234.967s-240.394-105.4-240.394-234.967c0-116.951 88.136-213.412 202.711-231.219l15.647-52.92-10.537-48.691c-5.745 0.246-11.172 1.26-16.988 1.26-162.56 0-289.915-94.587-289.915-215.409s127.345-215.388 289.915-215.388c159.877 0 289.946 96.625 289.946 215.388 0 93.563-81.254 172.616-193.72 202.291l13.783 63.683-14.95 50.534c110.817 20.879 194.888 116.132 194.888 230.472zM499.886 148.224c0-73.421-96.143-135.424-209.971-135.424-113.787 0-209.93 62.003-209.93 135.424 0 73.411 96.154 135.444 209.93 135.444 113.838-0.010 209.971-62.034 209.971-135.444zM339.476 540.211c-88.453 0-160.42 69.509-160.42 154.993s71.967 154.993 160.42 154.993 160.42-69.509 160.42-154.993-71.967-154.993-160.42-154.993zM858.522 800.051v159.949h-79.985v-159.949h-159.939v-79.974h159.939v-159.949h79.985v159.949h159.959v79.974z" />
<glyph unicode="&#xe91a;" glyph-name="info" d="M476.16 965.12h71.68v-225.28h-71.68v225.28zM476.16 647.68h71.68v-706.56h-71.68v706.56z" />
<glyph unicode="&#xe91b;" glyph-name="info-off" d="M476.16 964.096h71.68v-225.28h-71.68v225.28zM873.472 805.376c-14.336 14.336-36.864 14.336-51.2 0l-274.432-274.432v115.712h-71.68v-187.392l-323.584-322.56c-14.336-14.336-14.336-36.864 0-51.2 7.168-7.168 16.384-10.24 25.6-10.24s18.432 3.072 25.6 10.24l273.408 272.384v-417.792h71.68v489.472l325.632 325.632c13.312 13.312 13.312 35.84-1.024 50.176z" />
<glyph unicode="&#xe91c;" glyph-name="instagram" d="M0 960v-1024h1024v1024h-1024zM945.244 14.756h-866.478v866.478h866.468v-866.478zM507.996 112.302c160.164 0 290.458 130.386 290.458 290.632 0 73.646-28.457 140.186-73.759 191.457 6.461-1.044 12.923-1.997 19.62-1.997 69.222 0 125.522 56.34 125.522 125.573s-56.3 125.542-125.522 125.542c-69.243 0-125.563-56.31-125.563-125.542 0-18.934 4.557-36.731 12.083-52.849-37.458 17.613-78.756 28.232-122.839 28.232-160.195 0-290.499-130.273-290.499-290.417 0-160.246 130.314-290.632 290.499-290.632zM744.325 764.744c25.764 0 46.756-21.002 46.756-46.766 0-25.815-21.002-46.807-46.756-46.807-25.784 0-46.776 21.002-46.776 46.807-0.010 25.754 20.992 46.766 46.776 46.766zM507.996 614.584c116.695 0 211.702-94.966 211.702-211.651 0-116.849-94.996-211.845-211.702-211.845-116.726 0-211.722 94.986-211.722 211.845 0 116.685 94.996 211.651 211.722 211.651z" />
<glyph unicode="&#xe91d;" glyph-name="left" d="M739.543-63.212l-509.932 521.042 505.508 499.282 53.965-54.63-451.174-445.542 456.489-466.483z" />
<glyph unicode="&#xe91e;" glyph-name="left-arrow" d="M482.775 960l55.030-51.999-407.071-431.555h893.942v-75.735h-882.698l382.884-419.42-55.91-51.046-471.050 515.83z" />
<glyph unicode="&#xe91f;" glyph-name="link" d="M969.984 893.901c-34.898 34.877-81.316 54.077-130.703 54.077-49.562 0-96.184-19.323-131.277-54.405l-138.004-138.076c-35.123-35.092-54.436-81.736-54.426-131.338 0.010-32.369 8.407-63.365 23.91-90.737l-107.786-106.435c-29.85 19.671-64.799 30.269-101.396 30.269-49.562 0-96.195-19.323-131.338-54.415l-137.964-138.076c-35.021-35-54.354-81.521-54.446-130.99-0.092-49.531 19.128-96.051 54.088-130.98 34.816-34.826 81.162-53.996 130.488-53.996 49.592 0 96.256 19.333 131.41 54.456l137.953 138.015c35.021 34.99 54.374 81.48 54.497 130.918 0.102 38.339-11.5 74.813-32.901 105.564l103.24 101.939c32.522-25.979 72.561-40.172 114.842-40.172 49.582 0 96.256 19.333 131.441 54.477l137.882 137.984c35.052 34.99 54.405 81.49 54.508 130.939 0.123 49.5-19.057 96.010-54.016 130.98zM444.559 272.374c-0.072-30.679-12.093-59.525-33.864-81.285l-137.953-138.015c-21.842-21.811-50.821-33.833-81.613-33.833-30.515 0-59.167 11.837-80.691 33.372-21.627 21.606-33.505 50.391-33.454 81.050 0.051 30.689 12.052 59.566 33.823 81.306l137.943 138.056c21.821 21.791 50.77 33.792 81.531 33.792 17.377 0 34.109-3.973 49.326-11.254l-89.784-88.658c-13.834-13.66-13.978-35.963-0.307-49.797 6.892-6.984 15.974-10.465 25.057-10.465 8.94 0 17.889 3.379 24.75 10.158l91.443 90.296c9.032-16.589 13.834-35.267 13.793-54.723zM919.695 681.8l-137.892-137.994c-21.862-21.832-50.862-33.853-81.644-33.853-23.255 0-45.425 6.943-64.205 19.763l99.236 97.987c13.844 13.66 13.978 35.963 0.317 49.807-13.681 13.844-35.983 13.978-49.797 0.307l-93.041-91.873c-4.301 12.114-6.676 24.975-6.676 38.226 0 30.771 12.001 59.72 33.823 81.51l138.004 138.076c21.78 21.78 50.719 33.772 81.459 33.772 30.577 0 59.3-11.889 80.896-33.464 21.596-21.606 33.464-50.371 33.382-80.998-0.061-30.659-12.083-59.515-33.864-81.265z" />
<glyph unicode="&#xe920;" glyph-name="linkedin" d="M75.745 960h78.787v-236.37h-78.787v236.37zM75.745 644.854h78.787v-709.11h-78.787v709.11zM942.438-64.256l-0.317 501.279c-7.537 57.088-70.185 165.12-253.276 165.12-101.437 0-171.909-31.703-219.146-77.138v119.849h-78.787v-709.11h78.787v409.027l1.147-0.082c1.475 41.943 21.432 178.657 217.999 178.657 154.798 0 173.558-87.255 174.776-91.484v-496.128h78.817z" />
<glyph unicode="&#xe921;" glyph-name="loop" d="M499.046 483.195c-9.175 0-18.35 3.502-25.354 10.506l-199.506 199.68 202.179 200.54c14.060 13.937 36.741 13.855 50.698-0.205 13.916-14.060 13.844-36.741-0.215-50.688l-151.101-149.873 148.654-148.787c13.978-13.998 13.978-36.69-0.020-50.688-7.004-6.984-16.169-10.486-25.334-10.486zM525.015-7.834c-9.165 0-18.33 3.492-25.324 10.486-14.008 13.988-14.019 36.68-0.020 50.678l148.654 148.787-151.101 149.883c-14.060 13.937-14.141 36.639-0.205 50.688 13.947 14.049 36.639 14.141 50.678 0.215l202.179-200.55-199.496-199.67c-7.004-7.014-16.179-10.516-25.364-10.516zM740.485 202.127l-36.741 36.444h-449.782c-98.478 0-178.596 80.118-178.596 178.596v61.655c0 93.491 72.243 170.291 163.82 177.848l-11.254 11.264c-6.738 6.738-10.506 15.882-10.486 25.405 0.020 9.533 3.84 18.657 10.598 25.364l9.912 9.83c-130.57-8.284-234.271-117.084-234.271-249.702v-61.655c0-138.004 112.271-250.276 250.276-250.276h451.318l35.205 35.226zM775.322 729.108h-435.005l-36.25-35.953 35.697-35.727h435.558c98.499 0 178.616-80.118 178.616-178.596v-61.655c0-88.996-65.516-162.785-150.825-176.21l13.384-13.271c6.758-6.707 10.578-15.841 10.598-25.375s-3.738-18.668-10.476-25.405l-7.7-7.7c122.184 16.466 216.699 121.364 216.699 247.962v61.655c0 138.004-112.282 250.276-250.296 250.276z" />
<glyph unicode="&#xe922;" glyph-name="love" d="M513.311-64.348c-31.775 38.083-78.5 80.681-135.311 132.485-219.351 199.793-519.885 473.631-302.889 800.666 40.755 61.399 85.217 91.197 136.069 91.197 105.81 0 222.464-127.406 258.519-176.579 8.909-12.063 23.368-19.364 38.574-19.364h9.841c15.38 0 29.655 7.301 38.584 19.292 36.157 49.172 153.139 176.568 258.703 176.568 50.944 0 95.304-29.87 136.141-91.279 216.996-327.035-83.517-600.873-302.879-800.584-56.801-51.722-103.588-94.321-135.352-132.403z" />
<glyph unicode="&#xe923;" glyph-name="maps" d="M482.304 961.024c27.648 0 56.32 0 83.968 0 5.12-1.024 10.24-3.072 14.336-3.072 118.784-21.504 208.896-84.992 262.144-193.536 19.456-38.912 71.68-188.416-7.168-372.736-64.512-163.84-166.912-305.152-282.624-437.248-20.48-23.552-36.864-21.504-60.416 5.12-82.944 94.208-157.696 194.56-220.16 304.128-52.224 93.184-97.28 191.488-107.52 300.032-13.312 136.192 36.864 246.784 145.408 329.728 52.224 37.888 110.592 57.344 172.032 67.584zM525.312 373.248c126.976 0 228.352 101.376 228.352 227.328 0 130.048-100.352 231.424-229.376 230.4-126.976 0-228.352-101.376-228.352-228.352 0-130.048 99.328-229.376 229.376-229.376z" />
<glyph unicode="&#xe924;" glyph-name="maximise" d="M646.124 730.317h-82.719v-165.437h-165.437v-82.719h165.437v-165.437h82.719v165.437h165.417v82.719h-165.417zM594.575 960c-236.841 0-429.486-194.785-429.486-434.227 0-104.899 38.451-199.844 99.922-274.975l-254.822-256.461 58.644-58.317 254.413 255.98c74.199-61.706 167.895-100.403 271.34-100.403 236.759 0 429.425 194.755 429.425 434.176-0.010 239.442-192.666 434.227-429.435 434.227zM594.575 174.316c-191.201 0-346.778 157.665-346.778 351.457 0 193.833 155.576 351.508 346.778 351.508s346.696-157.676 346.696-351.508c0.010-193.782-155.494-351.457-346.696-351.457z" />
<glyph unicode="&#xe925;" glyph-name="minimise" d="M397.967 564.879h413.573v-82.719h-413.573v82.719zM594.575 960c-236.841 0-429.486-194.785-429.486-434.227 0-104.899 38.451-199.844 99.922-274.975l-254.822-256.461 58.644-58.317 254.413 255.98c74.199-61.706 167.895-100.403 271.34-100.403 236.759 0 429.425 194.755 429.425 434.176-0.010 239.442-192.666 434.227-429.435 434.227zM594.575 174.316c-191.201 0-346.778 157.665-346.778 351.457 0 193.833 155.576 351.508 346.778 351.508s346.696-157.676 346.696-351.508c0.010-193.782-155.494-351.457-346.696-351.457z" />
<glyph unicode="&#xe926;" glyph-name="min-width" d="M302.326 875.479h77.271v-850.022h-77.271v850.022zM688.701 875.479h77.281v-850.022h-77.281v850.022zM3.471 489.103h1020.59v-77.271h-1020.59v77.271zM147.63 160.696l-57.641 51.466 205.097 229.601-215.706 230.195 56.371 52.818 264.079-281.743zM925.583 160.696l-252.201 282.337 264.038 281.743 56.463-52.818-215.767-230.195 205.128-229.601z" />
<glyph unicode="&#xe927;" glyph-name="music" d="M1022.321 926.259c0 9.001-3.953 17.541-10.793 23.378-6.851 5.837-15.923 8.387-24.801 6.953l-664.3-106.67c-14.899-2.386-25.846-15.247-25.846-30.331v-618.127c-31.529 23.265-72.735 37.499-117.914 37.499-98.683 0-178.964-67.369-178.964-150.17s80.282-150.159 178.964-150.159c91.709 0 167.424 58.204 177.684 132.884 1.004 3.031 1.679 6.205 1.679 9.585v507.095l602.87 89.303v-392.817c-31.273 23.419-72.223 37.765-117.135 37.765-97.741 0-177.265-67.369-177.265-150.17s79.524-150.159 177.265-150.159c93.542 0 170.189 61.747 176.609 139.633 1.208 3.297 1.966 6.81 1.966 10.527v753.981z" />
<glyph unicode="&#xe928;" glyph-name="normalscreen" d="M704.86 640v317.133h-77.199v-394.332h394.035v77.199zM-2.755 248.934h316.867v-317.082h77.148v394.332h-394.015zM627.661-68.147h78.817v317.082h315.218v77.251h-394.035zM312.463 707.041v-68.659h-315.218v-75.581h394.015v394.332h-78.797z" />
<glyph unicode="&#xe929;" glyph-name="pause" d="M304.527 960h88.402v-1024.010h-88.402v1024.010zM643.359 960h88.422v-1024.010h-88.422v1024.010z" />
<glyph unicode="&#xe92a;" glyph-name="phone" d="M696.32 952.832h-358.4c-75.776 0-138.24-62.464-138.24-138.24v-751.616c0-75.776 62.464-138.24 138.24-138.24h358.4c75.776 0 138.24 62.464 138.24 138.24v751.616c0 75.776-62.464 138.24-138.24 138.24zM336.896 881.152h358.4c36.864 0 66.56-29.696 66.56-66.56v-566.272h-491.52v566.272c0 36.864 29.696 66.56 66.56 66.56zM696.32-3.584h-358.4c-36.864 0-66.56 29.696-66.56 66.56v123.904h491.52v-123.904c0-36.864-30.72-66.56-66.56-66.56zM521.216 165.376c-44.032 0-79.872-35.84-79.872-79.872s35.84-79.872 79.872-79.872c44.032 0 79.872 35.84 79.872 79.872s-35.84 79.872-79.872 79.872zM521.216 68.096c-10.24 0-18.432 8.192-18.432 18.432s8.192 18.432 18.432 18.432c10.24 0 18.432-8.192 18.432-18.432s-8.192-18.432-18.432-18.432zM430.080 779.776h195.584c17.408 0 30.72 13.312 30.72 30.72s-13.312 30.72-30.72 30.72h-195.584c-17.408 0-30.72-13.312-30.72-30.72s13.312-30.72 30.72-30.72z" />
<glyph unicode="&#xe92b;" glyph-name="photo" d="M855.040 791.040v174.080h-419.84v-174.080h-430.080v-849.92h1024v849.92h-174.080zM947.2 23.040h-849.92v696.32h430.080v163.84h245.76v-163.84h174.080v-696.32zM465.408 624.66c-153.62 0-278.569-124.989-278.569-278.641 0-153.62 124.948-278.61 278.569-278.61 153.733 0 278.733 124.989 278.733 278.61 0 153.651-125 278.641-278.733 278.641zM465.408 152.617c-106.598 0-193.352 86.794-193.352 193.403 0 106.639 86.764 193.434 193.352 193.434 106.66 0 193.516-86.794 193.516-193.434 0-106.609-86.866-193.403-193.516-193.403zM469.729 468.756c-71.188 0-129.096-57.917-129.096-129.147s57.917-129.147 129.096-129.147c71.199 0 129.116 57.917 129.116 129.147s-57.928 129.147-129.116 129.147zM469.729 295.68c-24.207 0-43.889 19.722-43.889 43.93 0 24.218 19.671 43.95 43.889 43.95 24.177 0 43.868-19.732 43.868-43.95-0.010-24.207-19.702-43.93-43.868-43.93zM721.92 514.56h174.080v153.6h-174.080v-153.6zM773.12 616.96h71.68v-51.2h-71.68v51.2z" />
<glyph unicode="&#xe92c;" glyph-name="pinterest" d="M462.94 949.289c-231.875 0-405.146-175.964-405.146-333.312 0-145.101 125.010-250.675 130.314-255.119 16.947-14.029 41.964-11.756 56.105 5.151 14.1 16.886 11.837 41.994-4.987 56.166-1.055 0.86-101.632 86.559-101.632 193.802 0 103.393 126.761 253.532 325.356 253.532 200.325 0 412.242-172.145 412.242-334.909 0-170.076-133.939-249.324-224.481-249.324-57.805 0-99.482 14.029-127.375 43.008-52.439 54.313-48.773 155.32-46.346 222.167 0.389 11.571 0.696 21.699 0.768 31.089 0.041 1.208 0.164 2.611 0.195 3.82 0 0.154-0.072 0.317-0.072 0.461 0 0.082 0 0.236 0 0.317 0 1.475-0.655 2.724-0.819 4.137-0.43 3.809-0.819 7.629-2.253 11.018-1.167 2.888-3.195 5.181-4.987 7.68-1.126 1.597-1.915 3.502-3.308 4.905-3.123 3.236-6.932 5.693-11.028 7.711-0.512 0.236-0.85 0.696-1.362 0.891-4.956 2.222-10.363 3.543-16.128 3.543-1.28 0-2.335-0.584-3.584-0.737-15.278-0.399-27.617-9.892-33.075-23.48-1.597-3.748-2.181-7.987-2.529-12.237-0.113-1.004-0.625-1.905-0.625-2.959 0-0.041 0-0.082 0-0.123 0-0.113-0.072-0.236-0.072-0.348 0-0.584-0.041-1.444-0.041-2.028-4.25-202.752-139.612-592.568-141.015-596.521-7.25-20.797 3.697-43.561 24.504-50.811 4.362-1.556 8.796-2.253 13.169-2.253 16.476 0 31.908 10.281 37.673 26.716 3.738 10.67 61.747 178.033 103.434 353.178 8.366-14.735 17.879-28.908 30.075-41.533 43.131-44.718 105.298-67.4 184.832-67.4 146.34 0 304.261 125.839 304.261 329.103-0.041 205.435-248.34 414.7-492.063 414.7z" />
<glyph unicode="&#xe92d;" glyph-name="play" d="M403.507 956.549l-69.663-27.32v-964.536l68.096-28.969 472.259 455.496 1.556 56.289z" />
<glyph unicode="&#xe92e;" glyph-name="playlist" d="M14.336 961.024v-1022.976l506.88 515.072zM119.808-61.952l902.144-2.048v116.736h-790.528zM625.664 453.12l-61.44-63.488h457.728v116.736h-449.536zM340.992 163.328h680.96v115.712h-567.296zM120.832 960l115.712-116.736h785.408v116.736zM462.848 616.96h559.104v115.712h-674.816z" />
<glyph unicode="&#xe92f;" glyph-name="playlist-close-sidebar" d="M784.384 279.040h237.568v-116.736h-237.568v116.736zM784.384 506.368h237.568v-116.736h-237.568v116.736zM784.384-62.976l237.568-1.024v116.736h-237.568zM784.384 732.672h237.568v-116.736h-237.568v116.736zM784.384 960h237.568v-116.736h-237.568v116.736zM-1.024-65.024h697.344v1026.048h-697.344v-1026.048zM60.416 695.808l53.248 52.224 244.736-245.76 244.736 245.76 53.248-52.224-244.736-245.76 244.736-245.76-53.248-53.248-244.736 245.76-244.736-245.76-53.248 52.224 244.736 245.76-244.736 246.784z" />
<glyph unicode="&#xe930;" glyph-name="playlist-sidebar" d="M695.296 279.040h326.656v-116.736h-326.656v116.736zM695.296 506.368h326.656v-116.736h-326.656v116.736zM695.296-62.976l326.656-1.024v116.736h-326.656zM695.296 732.672h326.656v-116.736h-326.656v116.736zM695.296 960h326.656v-116.736h-326.656v116.736zM-1.024 961.024h604.16v-1025.024h-604.16v1025.024z" />
<glyph unicode="&#xe931;" glyph-name="projects" d="M0 960v-1024h1024v1024h-1024zM952.32 720.384h-155.648v167.936h155.648v-167.936zM233.472 402.944v-174.080h-161.792v174.080h161.792zM71.68 474.624v174.080h161.792v-174.080h-161.792zM550.912 474.624v174.080h174.080v-174.080h-174.080zM724.992 402.944v-174.080h-174.080v174.080h174.080zM305.152 474.624v174.080h174.080v-174.080h-174.080zM479.232 402.944v-174.080h-174.080v174.080h174.080zM305.152 720.384v167.936h174.080v-167.936h-174.080zM479.232 157.184v-149.504h-174.080v149.504h174.080zM550.912 157.184h174.080v-149.504h-174.080v149.504zM550.912 720.384v167.936h174.080v-167.936h-174.080zM796.672 402.944h155.648v-174.080h-155.648v174.080zM796.672 474.624v174.080h155.648v-174.080h-155.648zM233.472 888.32v-167.936h-161.792v167.936h161.792zM71.68 157.184h161.792v-149.504h-161.792v149.504zM796.672 7.68v149.504h155.648v-149.504h-155.648z" />
<glyph unicode="&#xe932;" glyph-name="quote" d="M958.331 850.258c-48.968 70.124-115.046 105.687-196.393 105.687-70.687 0-129.26-28.908-174.090-85.924-35.891-45.66-56.812-103.199-62.843-171.151-10.988 58.88-31.14 109.558-60.344 151.398-48.957 70.113-115.046 105.677-196.403 105.677-70.646 0-129.219-28.908-174.1-85.934-43.039-54.774-64.85-126.382-64.85-212.828 0-56.054 10.947-104.724 32.522-144.63 22.579-41.861 55.583-72.008 98.816-89.876 8.233-3.164 20.244-7.875 35.871-14.152 50.565-20.47 61.573-33.874 63.58-37.007-0.666-34.243-22.118-75.387-63.775-122.348-44.728-50.442-103.608-93.942-175.022-129.3-12.421-6.154-19.19-19.855-16.507-33.464l25.098-127.601c1.72-8.745 7.158-16.312 14.899-20.736 4.69-2.683 9.953-4.055 15.247-4.055 3.43 0 6.871 0.573 10.189 1.741 141.824 49.818 255.908 134.39 339.108 251.331 79.596 111.821 121.59 239.186 125.164 378.808 5.253-19.169 12.186-37.028 21.023-53.33 22.559-41.861 55.562-72.008 98.785-89.876 8.233-3.174 20.255-7.885 35.891-14.162 50.565-20.46 61.563-33.874 63.56-37.007-0.655-34.253-22.098-75.397-63.775-122.348-44.708-50.432-103.588-93.942-175.022-129.3-12.421-6.154-19.19-19.855-16.507-33.464l25.119-127.601c1.72-8.745 7.158-16.323 14.899-20.736 4.69-2.683 9.953-4.055 15.237-4.055 3.43 0 6.871 0.573 10.179 1.741 141.824 49.818 255.898 134.38 339.087 251.331 83.302 117.033 125.532 251.044 125.532 398.285-0.010 109.087-23.613 198.205-70.175 264.888zM359.25 222.71c-69.1-97.126-161.864-169.789-276.101-216.361l-13.619 69.243c69.233 36.905 127.273 81.521 172.759 132.813 53.33 60.119 79.258 114.022 79.258 164.762 0 45.24-54.497 73.103-102.072 92.365-16.087 6.451-28.375 11.284-36.076 14.234-29.501 12.196-51.579 32.471-67.502 62.003-16.681 30.863-25.149 69.704-25.149 115.436 0 72.346 17.408 131.185 51.712 174.848 33.085 42.035 74.24 62.474 125.809 62.474 60.948 0 108.718-25.979 146.033-79.421 39.219-56.177 59.095-133.458 59.095-229.714-0.010-134.257-38.41-256.266-114.145-362.68zM852.91 222.71c-69.1-97.137-161.864-169.8-276.091-216.371l-13.629 69.253c69.253 36.915 127.293 81.531 172.749 132.813 53.33 60.099 79.258 114.002 79.258 164.762 0 45.251-54.497 73.114-102.062 92.365-16.077 6.451-28.375 11.274-36.076 14.223-29.512 12.206-51.579 32.481-67.502 62.013-16.681 30.822-25.139 69.652-25.139 115.425 0 72.366 17.398 131.205 51.732 174.858 33.055 42.025 74.189 62.464 125.788 62.464 60.928 0 108.687-25.979 146.012-79.421 39.219-56.166 59.105-133.458 59.105-229.714 0-134.226-38.41-256.236-114.145-362.67z" />
<glyph unicode="&#xe933;" glyph-name="reddit" d="M0.082 511.693c0 9.769 0 19.497 0 29.184 2.263 4.413 2.028 9.308 3.103 13.978 11.305 50.145 52.9 89.948 105.964 98.376 48.609 7.629 101.243-16.282 127.099-59.177 2.601-4.332 4.291-5.018 8.847-2.57 67.881 35.932 140.544 54.784 216.812 60.989 3.901 0.225 5.714 1.413 7.24 5.007 33.321 75.049 66.683 150.129 100.024 225.126 9.718 21.453 27.341 29.655 49.879 23.142 51.784-14.899 103.639-29.727 155.279-44.749 3.441-0.993 4.844-0.338 6.676 2.54 13.865 22.753 33.997 37.54 60.058 44.083 3.543 0.87 7.516 0.379 10.742 2.765 6.881 0 13.865 0 20.818 0 0.164-0.809 0.758-0.922 1.464-1.004 54.159-6.175 92.242-56.044 83.876-109.588-6.717-43.612-41.124-76.36-86.262-80.947-41.441-4.291-81.439 19.876-97.444 59.566-1.004 2.785-2.54 4.403-5.683 5.325-45.896 13.138-91.945 26.399-137.82 39.762-3.379 1.034-4.68 0.113-6.062-2.99-24.115-54.395-48.2-108.636-72.479-162.918-1.679-3.717-0.983-4.669 2.918-4.905 16.241-0.727 32.481-2.785 48.64-5.171 61.839-9.185 120.596-27.464 175.841-56.812 2.765-1.485 4.137-1.526 5.898 1.423 27.955 45.926 77.302 68.69 130.703 60.488 58.675-8.929 105.503-61.522 106.557-120.863 0.696-54.63-23.839-94.812-72.243-120.228-3-1.464-3.625-3.011-2.683-6.144 19.763-63.447 13.261-124.416-17.398-182.948-27.197-51.794-67.502-91.249-115.845-122.665-77.302-50.483-163.256-75.233-254.577-82.811-7.496-0.625-15.084-0.164-22.405-2.068-18.422 0-36.936 0-55.357 0-0.492 1.3-1.69 1.065-2.601 1.219-22.374 0.993-44.698 3.369-66.836 6.973-65.464 10.568-127.529 30.956-184.986 64.584-49.039 28.744-91.474 64.819-122.501 113.162-40.909 63.601-52.511 131.932-30.075 205.015 1.034 3.287 0.072 4.291-2.724 5.683-36.925 18.637-60.293 47.872-69.683 88.402-0.86 3.953-0.512 8.202-2.775 11.766zM510.321 578.54c-26.204-0.348-53.514-2.068-80.794-6.093-56.279-8.315-109.865-24.781-159.672-52.603-36.536-20.378-68.792-45.855-93.645-79.944-47.053-64.389-48.466-139.622-3.768-204.995 21.842-31.846 50.534-56.678 83.282-76.831 67.676-41.523 142.182-60.508 220.723-65.884 46.141-2.98 92.078-0.154 137.605 8.274 53.699 10.271 104.796 27.884 151.624 56.617 36.465 22.446 68.024 50.166 90.624 86.958 22.057 35.84 31.345 74.537 24.596 116.521-5.898 36.792-22.979 68.178-47.36 95.877-32.84 37.048-73.615 63.017-118.825 82.401-64.809 27.709-132.915 39.281-204.39 39.7zM63.867 523.909c1.034-22.866 12.708-42.445 36.004-54.733 1.956-0.963 3.871-2.458 5.98 0.727 20.797 31.795 46.807 58.604 76.841 81.633 2.826 2.222 2.417 3.799 1.004 6.318-13.978 25.047-43.981 38.042-71.711 30.792-27.822-7.158-48.046-33.014-48.118-64.737zM959.119 526.51c-0.297 2.345-0.461 4.905-0.696 7.475-3.144 27.73-23.665 49.715-51.784 55.429-25.979 5.284-54.159-7.885-67.42-31.365-1.597-3.031-1.597-4.649 1.597-6.973 29.501-22.794 55.316-49.152 75.776-80.476 1.761-2.847 3.215-3.154 6.124-1.659 23.060 12.145 35.021 31.252 36.403 57.569zM862.904 850.002c-19.784-0.031-35.697-15.882-35.86-35.625-0.082-19.763 16.261-36.188 36.004-36.27 19.917-0.041 36.024 16.159 36.024 36.116-0.010 20.081-16.036 35.901-36.168 35.779zM511.365 142.766c-64.85 2.13-124.416 19.845-176.824 58.993-12.605 9.329-17.541 22.436-14.674 37.693 2.959 15.473 12.636 25.59 28.037 29.573 11.878 2.98 22.753 0.461 32.563-6.82 26.276-19.692 56.084-31.57 87.91-38.543 41.329-9.124 81.49-4.506 120.781 9.964 19.384 7.127 37.376 16.466 53.944 28.887 17.295 12.636 40.602 9.185 53.002-7.199 12.882-16.794 9.656-40.305-7.342-53.402-33.423-25.733-71.557-41.677-112.261-51.261-21.443-5.048-43.121-7.731-65.137-7.885zM383.642 398.868c0-35.318-28.744-64.041-63.969-64.041-35.174 0.164-63.785 28.416-63.898 63.59-0.154 35.543 28.652 64.276 64.205 64.276 34.929-0.154 63.59-28.815 63.662-63.826zM703.457 334.828c-35.338-0.154-64.061 28.57-64.061 63.887 0.082 35.103 28.518 63.672 63.437 63.98 35.256 0.154 64.276-28.426 64.358-63.662 0.174-35.482-28.416-64.041-63.734-64.205z" />
<glyph unicode="&#xe934;" glyph-name="right" d="M283.73-63.764l-55.040 53.842 458.045 468.070-452.741 447.037 54.047 54.815 507.279-500.961z" />
<glyph unicode="&#xe935;" glyph-name="right-arrow" d="M539.802 960l-55.020-51.999 407.071-431.555h-893.952v-75.735h882.708l-382.884-419.42 55.9-51.046 471.050 515.83z" />
<glyph unicode="&#xe936;" glyph-name="screen-maximise" d="M0 566.159h78.766v253.164l250.388-249.088 55.542 55.839-256.492 255.16h265.646v78.766h-393.851zM630.159 960v-78.766h283.617l-250.153-255.764 56.32-55.081 225.3 230.349v-234.578h78.756v393.841zM384.696 230.543l-55.542 55.849-250.388-248.934v292.383h-78.766v-393.841h393.851v78.756h-226.191zM945.244 76.605l-211.026 209.787-55.521-55.849 217.006-215.788h-265.544v-78.756h393.841v393.841h-78.756z" />
<glyph unicode="&#xe937;" glyph-name="screen-minimise" d="M631.245-65.782h78.92v253.676l233.472-233.482 55.808 55.788-239.667 239.636h266.025v78.909h-394.557zM0 249.836h265.697l-240.538-239.565 55.716-55.951 234.752 233.882v-253.983h78.909v394.527h-394.537zM772.721 644.383l242.34 257.331-57.457 54.088-247.439-262.728v266.926h-78.92v-394.527h394.557v78.909zM315.628 709.796l-232.212 225.853-55.020-56.556 241.347-234.711h-269.742v-78.909h394.537v394.527h-78.909z" />
<glyph unicode="&#xe938;" glyph-name="settings" d="M848.722 311.163l173.076 88.084-1.485 111.032-162.458 82.862 61 169.165-77.076 79.923-186.921-54.221-84.634 171.991h-111.053l-88.914-168.694-178.002 60.191-78.367-78.664 57.549-184.535-169.615-86.569 1.618-111.032 173.588-88.3-55.757-183.542 81.070-75.878 170.701 59.116 77.865-160.266 111.022-0.543 88.556 165.96 174.684-62.116 79.575 77.445-55.521 188.314-0.502 0.276zM513.546 206.715c-132.905 0-240.64 107.735-240.64 240.64s107.735 240.64 240.64 240.64c132.905 0 240.63-107.735 240.63-240.64s-107.715-240.64-240.63-240.64z" />
<glyph unicode="&#xe939;" glyph-name="share" d="M786.944 331.459c-75.182 0-140.083-42.25-174.141-103.782l-204.544 116.91c17.725 29.839 28.58 64.215 28.58 101.386 0 29.348-6.717 56.996-18.145 82.135l199.301 126.577c35.379-56.381 97.597-94.249 168.94-94.249 110.162 0 199.782 89.6 199.782 199.772 0 110.182-89.62 199.793-199.772 199.793-110.182 0-199.782-89.61-199.782-199.782 0-10.322 1.536-20.214 3.062-30.075l-217.631-138.281c-35.676 33.137-83.087 53.893-135.526 53.893-110.162 0-199.772-89.6-199.772-199.772 0-110.213 89.61-199.834 199.772-199.834 43.889 0 84.163 14.684 117.146 38.748l234.865-134.246c-0.604-6.287-1.925-12.431-1.925-18.964 0-110.162 89.6-199.772 199.782-199.772 110.162 0 199.782 89.61 199.782 199.772 0 110.182-89.62 199.772-199.772 199.772zM786.944 881.439c66.816 0 121.221-54.395 121.221-121.211s-54.405-121.231-121.221-121.231-121.221 54.395-121.221 121.221 54.395 121.221 121.221 121.221zM237.066 324.731c-66.816 0-121.211 54.385-121.211 121.252 0 66.816 54.395 121.211 121.211 121.211s121.211-54.395 121.211-121.211c0-66.877-54.395-121.252-121.211-121.252zM786.944 10.476c-66.816 0-121.221 54.395-121.221 121.211s54.405 121.221 121.221 121.221 121.221-54.405 121.221-121.221-54.405-121.211-121.221-121.211z" />
<glyph unicode="&#xe93a;" glyph-name="share-off" d="M987.136 480.768l-552.96 1.024c-3.072 16.384-8.192 31.744-14.336 47.104l199.68 126.976c35.84-56.32 97.28-94.208 168.96-94.208 110.592 0 199.68 90.112 199.68 199.68-1.024 108.544-91.136 198.656-200.704 198.656-110.592 0-200.704-90.112-200.704-199.68 0-10.24 2.048-20.48 3.072-29.696l-217.088-139.264c-35.84 32.768-82.944 54.272-135.168 54.272-98.304 0-179.2-70.656-196.608-163.84h-1.024c0 0 0 0 0 0-19.456 0-35.84-16.384-35.84-35.84s16.384-35.84 35.84-35.84h1.024c17.408-93.184 98.304-163.84 196.608-163.84 44.032 0 83.968 14.336 116.736 38.912l234.496-134.144c-1.024-6.144-2.048-12.288-2.048-19.456 0-110.592 90.112-199.68 199.68-199.68 110.592 0 199.68 90.112 199.68 199.68 0 110.592-90.112 199.68-199.68 199.68-74.752 0-140.288-41.984-174.080-103.424l-204.8 116.736c12.288 19.456 20.48 41.984 24.576 65.536l552.96-1.024c0 0 0 0 0 0 19.456 0 35.84 16.384 35.84 35.84 2.048 19.456-14.336 35.84-33.792 35.84zM787.456 881.152c66.56 0 120.832-54.272 120.832-120.832s-54.272-120.832-120.832-120.832-121.856 54.272-121.856 120.832c0 66.56 54.272 120.832 121.856 120.832zM787.456 252.416c66.56 0 120.832-54.272 120.832-120.832s-54.272-120.832-120.832-120.832-121.856 54.272-121.856 120.832c0 66.56 54.272 120.832 121.856 120.832zM237.568 566.784c54.272 0 100.352-35.84 115.712-86.016h-231.424c14.336 50.176 60.416 86.016 115.712 86.016zM237.568 325.12c-54.272 0-100.352 35.84-115.712 84.992h231.424c-16.384-49.152-62.464-84.992-115.712-84.992z" />
<glyph unicode="&#xe93b;" glyph-name="shuffle" d="M773.56 378.706l105.062-93.481h-134.687c-53.361 0-118.344 57.334-182.518 126.423l-47.442-54.262c74.926-79.882 151.624-143.841 229.96-143.841h141.558l-112.015-100.372 50.36-50.995 201.359 188.57-203.981 181.514-47.657-53.555zM743.936 618.025h134.676l-105.062-93.481 47.657-53.545 203.981 181.514-201.349 188.57-50.36-51.005 112.015-100.372h-141.558c-107.837 0-212.562-121.129-313.815-238.275-65.321-75.571-146.627-169.615-189.645-169.615h-235.356v-71.68h235.356c75.796 0 153.682 90.102 243.866 194.417 86.497 100.065 184.535 213.473 259.594 213.473zM386.335 501.955l47.606 54.446c-69.458 77.752-132.137 136.724-193.454 136.724h-235.366v-71.68h235.356c33.782-0.010 91.136-58.010 145.859-119.491z" />
<glyph unicode="&#xe93c;" glyph-name="sound" d="M309.166 134.205l242.35-198.205v1024l-242.35-275.016zM37.315 637.85h219.085v-438.17h-219.085v438.17zM621.517 557.998h73.042v-260.045h-73.042v260.045zM767.58 610.54h73.021v-365.138h-73.021v365.138zM913.644 683.571h73.042v-511.201h-73.042v511.201z" />
<glyph unicode="&#xe93d;" glyph-name="sound-off" d="M622.93 454.605h-71.414v505.395l-242.35-275.016v-230.38h-52.767v183.245h-219.085v-183.245h-37.315v-71.68h37.315v-183.245h219.085v183.245h52.767v-248.73l242.35-198.195v446.925h71.414z" />
<glyph unicode="&#xe93e;" glyph-name="standard-post" d="M852.337 953.743h-677.12c-96.768 0-175.217-78.479-175.217-175.217v-670.833c0-96.737 78.438-175.206 175.217-175.206h677.12c96.901 0 175.217 78.469 175.217 175.206v670.833c0.010 96.737-78.316 175.217-175.217 175.217zM175.217 881.428h314.44v-358.973h-417.331v256.072c0 56.74 46.152 102.902 102.892 102.902zM955.259 107.704c0-56.74-46.182-102.902-102.922-102.902h-677.12c-56.74 0-102.902 46.162-102.902 102.902v343.071h489.021v430.653h291c56.74 0 102.922-46.162 102.922-102.902v-670.822zM848.056 370.555h-691.2c-19.794 0-35.84-16.046-35.84-35.84s16.046-35.84 35.84-35.84h691.2c19.794 0 35.84 16.046 35.84 35.84s-16.046 35.84-35.84 35.84zM858.296 792.105h-223.58c-19.794 0-35.84-16.046-35.84-35.84s16.046-35.84 35.84-35.84h223.58c19.794 0 35.84 16.046 35.84 35.84s-16.046 35.84-35.84 35.84zM858.296 607.785h-223.58c-19.794 0-35.84-16.046-35.84-35.84s16.046-35.84 35.84-35.84h223.58c19.794 0 35.84 16.046 35.84 35.84s-16.046 35.84-35.84 35.84zM848.056 169.175h-691.2c-19.794 0-35.84-16.046-35.84-35.84s16.046-35.84 35.84-35.84h691.2c19.794 0 35.84 16.046 35.84 35.84s-16.046 35.84-35.84 35.84z" />
<glyph unicode="&#xe93f;" glyph-name="tumblr" d="M593.818 380.293c0-49.111-0.061-98.079 0.102-147.364 0-17.818 1.997-35.502 8.54-52.163 12.001-31.293 35.205-47.872 67.656-51.61 33.618-3.82 66.099 2.58 97.464 14.1 5.622 1.874 7.096 0.768 8.724-4.209 14.797-44.288 29.737-88.525 44.923-132.495 1.884-5.683 0-8.796-3.656-12.38-14.776-13.394-32.379-21.944-50.821-28.948-80.579-30.761-162.56-33.946-243.825-5.612-93.389 32.225-150.641 99.092-174.807 194.54-5.335 20.869-7.014 42.353-7.014 63.836 0.113 106.025 0 212.009 0.266 317.85 0 7.905-2.171 9.574-9.605 9.462-28.959-0.43-57.928-0.041-86.876-0.358-5.683-0.041-6.892 1.751-6.892 7.127 0.205 39.311 0.205 78.582 0 117.903 0 4.977 1.413 7.281 6.154 9.185 104.55 40.602 162.386 119.839 186.675 226.611 3.031 13.394 5.294 27.054 6.84 40.755 1.167 10.435 3.164 12.022 13.783 12.022 45.148 0.041 90.307-0.164 135.455 0.195 6.922 0 8.018-2.335 8.018-8.643-0.236-80.681-0.082-161.454-0.317-242.135 0-6.779 1.26-8.837 8.581-8.796 62.341 0.307 124.785 0.031 187.136 0.389 6.779 0 8.264-2.017 8.264-8.479-0.236-45.937-0.317-91.904 0-137.83 0-6.656-1.884-8.294-8.417-8.294-62.659 0.276-125.338 0-187.996 0.358-7.322 0.031-8.561-2.14-8.499-8.878 0.307-52.050 0.143-104.049 0.143-156.14z" />
<glyph unicode="&#xe940;" glyph-name="twitter" d="M336.835-38.339c-109.312 0-273.684 82.76-280.627 86.282l-56.207 37.519 58.767 31.939c65.567 27.505 130.017 63.918 154.092 86.036-77.046 49.142-170.353 176.763-181.34 192l-34.918 48.415 58.614 11.52c29.235 5.765 60.713 15.258 79.811 23.511-43.244 51.845-117.146 157.112-126.525 170.527l-6.912 9.871v251.474l63.334-54.876c136.294-118.057 306.196-249.416 343.020-255.887 16.599 2.427 58.317 71.741 83.251 113.162 59.392 98.54 133.243 221.194 246.364 221.194 85.821 0 225.044-130.161 252.099-156.252l36.639-35.41-44.175-25.344c-71.619-41.124-178.094-236.37-181.238-297.196-13.302-260.291-317.112-458.486-464.046-458.486zM165.949 82.698c54.764-22.057 123.208-44.483 170.885-44.483 103.69 0 376.586 171.059 387.645 385.823 3.963 78.653 95.764 249.119 179.497 328.745-62.413 54.753-135.455 105.001-166.42 105.001-69.898 0-131.359-102.093-180.777-184.146-50.504-83.845-90.388-150.088-150.651-150.088-54.313 0-209.521 120.934-327.987 220.406v-60.477c32.594-46.213 102.728-143.626 128.297-169.861 15.176-15.514 20.521-35.441 14.541-54.62-8.141-26.276-39.178-47.811-92.447-64.369 38.543-48.005 93.901-110.5 131.738-130.243 35.021-18.237 37.683-46.5 37.233-57.856-1.874-44.431-62.433-88.166-131.553-123.832z" />
<glyph unicode="&#xe941;" glyph-name="up" d="M1023.877 219.72l-53.842-55.040-468.050 458.056-447.037-452.751-54.825 54.057 500.961 507.279z" />
<glyph unicode="&#xe942;" glyph-name="vimeo" d="M839.68 887.296c17.408 0 34.816 0 51.2 0 4.096-1.024 8.192-2.048 13.312-3.072 44.032-9.216 79.872-29.696 99.328-70.656 10.24-19.456 14.336-41.984 20.48-62.464 0-18.432 0-36.864 0-54.272-1.024-3.072-2.048-7.168-3.072-10.24-11.264-80.896-38.912-156.672-75.776-229.376-58.368-116.736-137.216-218.112-228.352-311.296-52.224-52.224-106.496-102.4-166.912-144.384-48.128-32.768-96.256-32.768-144.384 0-40.96 27.648-68.608 65.536-83.968 111.616-30.72 92.16-58.368 186.368-88.064 278.528-23.552 70.656-46.080 140.288-69.632 209.92-9.216 26.624-23.552 31.744-50.176 23.552-5.12-2.048-10.24-3.072-15.36-6.144-19.456-10.24-38.912-21.504-58.368-32.768-13.312 17.408-26.624 35.84-41.984 56.32 39.936 39.936 77.824 80.896 118.784 118.784 46.080 44.032 97.28 82.944 156.672 107.52 66.56 27.648 111.616 9.216 142.336-56.32 1.024-2.048 2.048-4.096 3.072-7.168 12.288-46.080 27.648-92.16 35.84-139.264 17.408-98.304 35.84-195.584 67.584-290.816 5.12-15.36 12.288-30.72 20.48-45.056 12.288-21.504 25.6-23.552 44.032-8.192 9.216 8.192 18.432 17.408 26.624 26.624 41.984 52.224 74.752 109.568 103.424 168.96 13.312 28.672 18.432 58.368 12.288 90.112-8.192 38.912-35.84 61.44-74.752 57.344-17.408-2.048-34.816-10.24-52.224-15.36-4.096-1.024-7.168-3.072-14.336-6.144 25.6 114.688 91.136 189.44 197.632 229.376 16.384 6.144 35.84 9.216 54.272 14.336z" />
<glyph unicode="&#xe943;" glyph-name="watch-later" d="M512 957.686c-282.317 0-512-229.161-512-510.843 0-281.672 229.683-510.843 512-510.843 282.307 0 512 229.171 512 510.843 0 281.682-229.704 510.843-512 510.843zM512 19.876c-236.739 0-429.312 191.56-429.312 426.957 0 235.438 192.563 426.957 429.312 426.957 236.769 0 429.322-191.519 429.322-426.947 0-235.407-192.563-426.967-429.322-426.967zM542.935 800.625h-82.668v-335.585h-82.668v-83.917h82.668v-83.896h82.668v83.896h248.044v83.917h-248.044z" />
<glyph unicode="&#xe944;" glyph-name="youtube" d="M515.072 520.704c62.464-1.024 124.928-1.024 186.368-2.048 39.936-1.024 78.848-2.048 118.784-4.096 25.6-1.024 50.176-8.192 70.656-23.552 32.768-23.552 50.176-56.32 51.2-97.28 1.024-13.312 2.048-27.648 3.072-40.96 1.024-22.528 3.072-45.056 3.072-67.584 1.024-31.744 1.024-63.488 0-96.256-1.024-31.744-2.048-64.512-4.096-96.256-1.024-13.312-1.024-27.648-3.072-40.96-3.072-31.744-17.408-57.344-40.96-78.848-18.432-16.384-39.936-26.624-64.512-30.72-11.264-2.048-23.552-2.048-34.816-2.048-31.744-1.024-63.488-2.048-94.208-3.072-82.944-1.024-165.888-1.024-248.832-1.024-55.296 0-111.616 1.024-166.912 2.048-29.696 1.024-60.416 1.024-90.112 3.072-24.576 1.024-46.080 10.24-64.512 24.576-26.624 20.48-43.008 47.104-48.128 80.896-1.024 9.216-2.048 19.456-2.048 28.672-1.024 15.36-2.048 31.744-3.072 47.104-1.024 37.888-2.048 74.752-2.048 112.64 0 35.84 2.048 71.68 3.072 108.544 1.024 19.456 2.048 37.888 3.072 57.344 3.072 35.84 19.456 64.512 48.128 87.040 21.504 16.384 46.080 25.6 73.728 26.624 102.4 4.096 204.8 5.12 306.176 6.144zM590.848 317.952c0 1.024 0 3.072 0 4.096 0 33.792 0 67.584 0 101.376 0 6.144-2.048 8.192-8.192 8.192-16.384 0-32.768 0-48.128 0-7.168 0-9.216-2.048-9.216-9.216 0-121.856 0-242.688 0-364.544 0-5.12 0-10.24 0-15.36 0-4.096 2.048-7.168 7.168-7.168 17.408 0 34.816 0 52.224 0 4.096 0 6.144 2.048 7.168 7.168 0 2.048 0 3.072 0 5.12 1.024-1.024 2.048-1.024 2.048-2.048 12.288-8.192 25.6-13.312 39.936-14.336 22.528 0 40.96 11.264 49.152 31.744 4.096 10.24 6.144 21.504 6.144 32.768 0 53.248 0 107.52 0 160.768 0 9.216-1.024 18.432-3.072 27.648-2.048 11.264-7.168 22.528-14.336 31.744-16.384 20.48-46.080 23.552-68.608 10.24-4.096-2.048-7.168-5.12-12.288-8.192zM783.36 171.52c2.048 0 3.072 0 4.096 0 28.672 0 58.368 0 87.040 0 8.192 0 8.192 1.024 8.192 8.192 0 22.528 0 46.080 0 68.608 0 11.264-1.024 21.504-3.072 31.744-6.144 23.552-19.456 41.984-41.984 51.2-16.384 7.168-33.792 8.192-52.224 5.12-34.816-5.12-68.608-35.84-69.632-80.896-1.024-46.080 0-92.16 0-139.264 0-15.36 3.072-29.696 9.216-43.008 10.24-22.528 26.624-37.888 51.2-44.032 19.456-4.096 37.888-3.072 56.32 3.072 15.36 5.12 27.648 14.336 36.864 28.672 7.168 11.264 11.264 24.576 13.312 37.888 1.024 14.336 1.024 27.648 2.048 41.984 0 4.096-2.048 7.168-7.168 7.168-17.408 0-34.816 0-52.224 0-5.12 0-7.168-3.072-7.168-7.168 0-8.192 0-16.384 0-24.576 0-6.144-1.024-11.264-2.048-17.408s-4.096-9.216-11.264-10.24c-2.048 0-4.096 0-5.12 0-7.168 0-11.264 4.096-12.288 10.24s-2.048 12.288-2.048 18.432c0 16.384 0 33.792 0 50.176-2.048 2.048-2.048 2.048-2.048 4.096zM420.864 57.856c0-5.12 0-9.216 0-13.312 0-6.144 2.048-8.192 8.192-8.192 15.36 0 31.744 0 47.104 0 8.192 0 9.216 1.024 9.216 9.216 0 0 0 0 0 0 0 92.16 0 184.32 0 276.48 0 1.024 0 2.048 0 3.072 0 5.12-2.048 6.144-7.168 6.144-16.384 0-32.768 0-49.152 0-6.144 0-8.192-2.048-8.192-8.192 0-43.008 0-86.016 0-129.024 0-26.624 0-53.248 0-79.872 0-2.048-1.024-4.096-2.048-5.12-4.096-4.096-8.192-7.168-12.288-10.24-3.072-2.048-6.144-3.072-9.216-4.096-5.12-1.024-8.192 1.024-8.192 6.144 0 3.072 0 6.144 0 9.216 0 70.656 0 141.312 0 212.992 0 7.168-2.048 9.216-9.216 9.216-15.36 0-30.72 0-46.080 0-7.168 0-9.216-2.048-9.216-9.216 0-75.776 0-150.528 0-226.304 0-6.144 0-13.312 1.024-19.456 1.024-9.216 3.072-19.456 8.192-27.648 10.24-15.36 24.576-18.432 40.96-16.384 12.288 2.048 22.528 7.168 31.744 13.312 5.12 3.072 9.216 7.168 14.336 11.264zM203.776 363.008c0-2.048 0-3.072 0-5.12 0-104.448 0-208.896 0-313.344 0-7.168 2.048-9.216 9.216-9.216 17.408 0 33.792 0 51.2 0 10.24 0 10.24 1.024 10.24 10.24 0 104.448 0 207.872 0 312.32 0 1.024 0 3.072 0 5.12 2.048 0 3.072 0 4.096 0 16.384 0 33.792 0 50.176 0 5.12 0 8.192 2.048 8.192 8.192 0 17.408 0 35.84 0 53.248 0 5.12-2.048 7.168-7.168 7.168 0 0 0 0-1.024 0-59.392 0-118.784 0-178.176 0-5.12 0-7.168-1.024-7.168-6.144 0-18.432 0-36.864 0-55.296 0-4.096 2.048-6.144 6.144-6.144 16.384 0 32.768 0 49.152 0 2.048-1.024 3.072-1.024 5.12-1.024zM599.040 718.336c0-22.528 0-46.080 0-68.608 0-13.312-2.048-26.624-7.168-39.936-10.24-21.504-27.648-32.768-51.2-37.888-15.36-3.072-30.72-3.072-46.080 2.048-24.576 8.192-39.936 26.624-46.080 51.2-2.048 7.168-3.072 15.36-3.072 23.552 0 49.152 0 99.328 0 148.48 0 34.816 22.528 61.44 56.32 68.608 16.384 3.072 32.768 3.072 48.128-2.048 23.552-8.192 48.128-31.744 48.128-68.608 0-25.6 1.024-51.2 1.024-76.8zM544.768 720.384c0 8.192 0 16.384 0 25.6 0 18.432 0 36.864 0 54.272 0 9.216-6.144 15.36-14.336 17.408-4.096 1.024-9.216 1.024-13.312 1.024-8.192-1.024-14.336-7.168-16.384-14.336 0-2.048-1.024-5.12-1.024-7.168 0-50.176 0-100.352 0-151.552 0-3.072 0-6.144 1.024-9.216 1.024-4.096 2.048-8.192 6.144-11.264 8.192-7.168 25.6-6.144 32.768 2.048 5.12 5.12 5.12 11.264 5.12 18.432 0 24.576 0 50.176 0 74.752zM379.904 578.048c-20.48 0-39.936 0-59.392 0 0 1.024 0 3.072 0 4.096 0 47.104 0 95.232 0 142.336 0 3.072 0 5.12-1.024 8.192-20.48 67.584-40.96 135.168-62.464 203.776-2.048 8.192-5.12 16.384-7.168 24.576 19.456 0 39.936 0 59.392 0 3.072-10.24 5.12-20.48 8.192-30.72 10.24-39.936 19.456-78.848 29.696-118.784 1.024-2.048 1.024-4.096 4.096-3.072 2.048 8.192 4.096 16.384 6.144 23.552 10.24 41.984 20.48 82.944 30.72 124.928 1.024 3.072 2.048 4.096 5.12 4.096 17.408 0 34.816 0 52.224 0 1.024 0 2.048 0 4.096 0-2.048-7.168-4.096-13.312-6.144-19.456-20.48-67.584-40.96-135.168-61.44-202.752-1.024-2.048-1.024-4.096-1.024-6.144 0-50.176 0-100.352 0-150.528-1.024-1.024-1.024-2.048-1.024-4.096zM741.376 860.672c17.408 0 34.816 0 52.224 0 0-94.208 0-188.416 0-282.624-17.408 0-33.792 0-51.2 0 0 10.24 0 19.456 0 29.696-5.12-5.12-9.216-9.216-14.336-13.312-11.264-9.216-22.528-16.384-36.864-19.456-10.24-2.048-20.48-1.024-29.696 5.12-7.168 5.12-12.288 13.312-13.312 21.504-2.048 7.168-3.072 13.312-3.072 20.48 0 77.824 0 156.672 0 234.496 0 1.024 0 2.048 0 3.072 17.408 0 34.816 0 53.248 0 0-2.048 0-3.072 0-4.096 0-70.656 0-141.312 0-210.944 0-4.096 0-8.192 1.024-12.288 0-3.072 3.072-5.12 6.144-6.144 5.12-1.024 9.216-1.024 13.312 1.024 9.216 4.096 16.384 10.24 22.528 18.432 1.024 1.024 1.024 3.072 1.024 4.096 0 68.608 0 137.216 0 206.848-1.024 1.024-1.024 3.072-1.024 4.096zM590.848 183.808c0 27.648 0 54.272 0 81.92 0 3.072 1.024 5.12 3.072 6.144s4.096 3.072 6.144 4.096c11.264 6.144 20.48 1.024 22.528-12.288 0-3.072 1.024-7.168 1.024-11.264 0-48.128 0-95.232 0-143.36 0-4.096 0-8.192-1.024-11.264-1.024-6.144-3.072-9.216-9.216-9.216-8.192-1.024-15.36 3.072-20.48 9.216-1.024 1.024-1.024 2.048-1.024 4.096-1.024 26.624-1.024 54.272-1.024 81.92zM816.128 226.816c-11.264 0-21.504 0-32.768 0 0 0 0 0 0 0 0 12.288 0 24.576 1.024 36.864 1.024 8.192 4.096 10.24 12.288 11.264 3.072 0 5.12 0 8.192 0 5.12-1.024 8.192-3.072 10.24-8.192 1.024-3.072 1.024-6.144 2.048-8.192-1.024-10.24-1.024-20.48-1.024-31.744z" />
<glyph unicode="&#xe945;" glyph-name="cast" d="M98.304 80.384c0-27.146-22.006-49.152-49.152-49.152s-49.152 22.006-49.152 49.152c0 27.146 22.006 49.152 49.152 49.152s49.152-22.006 49.152-49.152zM41.984 383.488c-17.408 0-30.72-13.312-30.72-30.72s13.312-30.72 30.72-30.72c139.264 0 251.904-112.64 251.904-251.904 0-17.408 13.312-30.72 30.72-30.72s30.72 13.312 30.72 30.72c0 173.056-140.288 313.344-313.344 313.344zM41.984 525.824c-17.408 0-30.72-13.312-30.72-30.72s13.312-30.72 30.72-30.72c217.088 0 393.216-176.128 393.216-393.216 0-17.408 13.312-30.72 30.72-30.72s30.72 13.312 30.72 30.72c1.024 249.856-203.776 454.656-454.656 454.656zM41.984 246.272c-17.408 0-30.72-13.312-30.72-30.72s13.312-30.72 30.72-30.72c63.488 0 114.688-51.2 114.688-114.688 0-17.408 13.312-30.72 30.72-30.72s30.72 13.312 30.72 30.72c0 97.28-78.848 176.128-176.128 176.128zM924.672 856.576h-821.248c-56.32 0-102.4-46.080-102.4-102.4v-151.552c0-17.408 13.312-30.72 30.72-30.72s30.72 13.312 30.72 30.72v151.552c0 22.528 18.432 40.96 40.96 40.96h821.248c22.528 0 40.96-18.432 40.96-40.96v-611.328c0-22.528-18.432-40.96-40.96-40.96h-353.28c-17.408 0-30.72-13.312-30.72-30.72s13.312-30.72 30.72-30.72h354.304c56.32 0 102.4 46.080 102.4 102.4v611.328c-1.024 56.32-47.104 102.4-103.424 102.4zM848.896 200.192h-279.552c-17.408 0-30.72-13.312-30.72-30.72s13.312-30.72 30.72-30.72h279.552c39.936 0 71.68 31.744 71.68 71.68v465.92c0 39.936-31.744 71.68-71.68 71.68h-672.768c-39.936 0-71.68-31.744-71.68-71.68v-80.896c0-17.408 13.312-30.72 30.72-30.72s30.72 13.312 30.72 30.72v80.896c0 6.144 4.096 10.24 10.24 10.24h673.792c6.144 0 10.24-4.096 10.24-10.24v-465.92c-1.024-6.144-5.12-10.24-11.264-10.24z" />
<glyph unicode="&#xe946;" glyph-name="uncast" d="M848.896 748.032h-669.696c-39.936 0-71.68-31.744-71.68-71.68v-465.92c0-39.936 31.744-71.68 71.68-71.68h670.72c39.936 0 71.68 31.744 71.68 71.68v465.92c-1.024 39.936-32.768 71.68-72.704 71.68zM859.136 210.432c0-6.144-4.096-10.24-10.24-10.24h-669.696c-6.144 0-10.24 4.096-10.24 10.24v465.92c0 6.144 4.096 10.24 10.24 10.24h670.72c6.144 0 10.24-4.096 10.24-10.24v-465.92zM924.672 856.576h-820.224c-56.32 0-102.4-46.080-102.4-102.4v-611.328c0-56.32 46.080-102.4 102.4-102.4h820.224c56.32 0 102.4 46.080 102.4 102.4v611.328c0 56.32-46.080 102.4-102.4 102.4zM965.632 141.824c0-22.528-18.432-40.96-40.96-40.96h-820.224c-22.528 0-40.96 18.432-40.96 40.96v612.352c0 22.528 18.432 40.96 40.96 40.96h820.224c22.528 0 40.96-18.432 40.96-40.96v-612.352zM792.576 641.536c-9.216 14.336-28.672 18.432-43.008 8.192l-244.736-161.792-244.736 161.792c-14.336 9.216-32.768 5.12-43.008-8.192s-5.12-32.768 8.192-43.008l223.232-147.456-222.208-147.456c-14.336-9.216-18.432-28.672-8.192-43.008 6.144-9.216 15.36-13.312 25.6-13.312 6.144 0 11.264 2.048 17.408 5.12l244.736 161.792 244.736-161.792c5.12-3.072 11.264-5.12 17.408-5.12 10.24 0 19.456 5.12 25.6 13.312 9.216 14.336 5.12 32.768-8.192 43.008l-224.256 147.456 223.232 147.456c13.312 9.216 17.408 28.672 8.192 43.008z" />
</font>
</defs>
</svg>
